<svg xmlns="http://www.w3.org/2000/svg" width="19" height="22" fill="none" viewBox="0 0 19 22">
  <path fill="#8C8C8C" fill-rule="evenodd" d="M3.805 19.319V0h1.333v19.319L8 16.199l.943 1.028-4 4.36a.64.64 0 0 1-.472.213.64.64 0 0 1-.471-.213l-4-4.36.943-1.027 2.862 3.119ZM15.138 1.453c-1.104 0-2 .976-2 2.18v2.18h4v-2.18c0-1.204-.895-2.18-2-2.18Zm2 5.814v2.906h1.333v-6.54C18.471 1.627 16.98 0 15.138 0c-1.84 0-3.333 1.627-3.333 3.633v6.54h1.333V7.267h4Zm-5.333 4.36h4c1.473 0 2.666 1.301 2.666 2.906 0 .869-.349 1.648-.902 2.18a3.02 3.02 0 0 1 .902 2.18c0 1.606-1.194 2.907-2.666 2.907h-4V11.627Zm4 4.36c.736 0 1.333-.651 1.333-1.454 0-.802-.597-1.453-1.333-1.453h-2.667v2.907h2.667Zm-2.667 1.453h2.667c.736 0 1.333.65 1.333 1.453s-.597 1.454-1.333 1.454h-2.667V17.44Z" clip-rule="evenodd"/>
</svg>
