<svg xmlns="http://www.w3.org/2000/svg" width="200" height="200" fill="none" viewBox="0 0 200 200">
  <path fill="#F8F8F7" d="M140 40c-11.046 0-20 8.954-20 20s8.954 20 20 20 20-8.954 20-20-8.954-20-20-20Z"/>
  <path fill="#F8F8F7" fill-rule="evenodd" d="M0 20C0 8.954 8.954 0 20 0h160c11.046 0 20 8.954 20 20v160a19.876 19.876 0 0 1-2.377 9.465C194.247 195.737 187.621 200 180 200H20c-11.046 0-20-8.954-20-20V20Zm64.656 21.895L60 37.24 13.333 83.905V20A6.667 6.667 0 0 1 20 13.333h160A6.667 6.667 0 0 1 186.667 20v113.333h-30.572l-91.38-91.38a5.24 5.24 0 0 0-.059-.058Z" clip-rule="evenodd"/>
</svg>
